HIERARCHY
ROOT root
{
	OFFSET 0.000000 0.000000 0.000000
	CHANNELS 6 Xposition Yposition Zposition Zrotation Yrotation Xrotation
	JOINT lhip
	{
		OFFSET 0.058581 -0.082280 -0.017664
		CHANNELS 3 Zrotation Yrotation Xrotation
		JOINT lknee
		{
			OFFSET 0.043451 -0.386469 0.008037
			CHANNELS 3 Zrotation Yrotation Xrotation
			JOINT lankle
			{
				OFFSET -0.014790 -0.426874 -0.037428
				CHANNELS 3 Zrotation Yrotation Xrotation
				JOINT ltoe
				{
					OFFSET 0.041054 -0.060286 0.122042
					CHANNELS 3 Zrotation Yrotation Xrotation
					End Site
					{
						OFFSET 0.000000 0.000000 0.000000
					}
				}
			}
		}
	}
	JOINT rhip
	{
		OFFSET -0.060310 -0.090513 -0.013543
		CHANNELS 3 Zrotation Yrotation Xrotation
		JOINT rknee
		{
			OFFSET -0.043257 -0.383688 -0.004843
			CHANNELS 3 Zrotation Yrotation Xrotation
			JOINT rankle
			{
				OFFSET 0.019056 -0.420046 -0.034562
				CHANNELS 3 Zrotation Yrotation Xrotation
				JOINT rtoe
				{
					OFFSET -0.034840 -0.062106 0.130323
					CHANNELS 3 Zrotation Yrotation Xrotation
					End Site
					{
						OFFSET 0.000000 0.000000 0.000000
					}
				}
			}
		}
	}
	JOINT lowerback
	{
		OFFSET 0.004439 0.124404 -0.038385
		CHANNELS 3 Zrotation Yrotation Xrotation
		JOINT upperback
		{
			OFFSET 0.004488 0.137956 0.026820
			CHANNELS 3 Zrotation Yrotation Xrotation
			JOINT chest
			{
				OFFSET -0.002265 0.056032 0.002855
				CHANNELS 3 Zrotation Yrotation Xrotation
				JOINT lowerneck
				{
					OFFSET -0.013390 0.211636 -0.033468
					CHANNELS 3 Zrotation Yrotation Xrotation
					JOINT upperneck
					{
						OFFSET 0.010113 0.088937 0.050410
						CHANNELS 3 Zrotation Yrotation Xrotation
						End Site
						{
							OFFSET 0.000000 0.000000 0.000000
						}
					}
				}
				JOINT lclavicle
				{
					OFFSET 0.071702 0.114000 -0.018898
					CHANNELS 3 Zrotation Yrotation Xrotation
					JOINT lshoulder
					{
						OFFSET 0.122921 0.045205 -0.019046
						CHANNELS 3 Zrotation Yrotation Xrotation
						JOINT lelbow
						{
							OFFSET 0.255332 -0.015649 -0.022946
							CHANNELS 3 Zrotation Yrotation Xrotation
							JOINT lwrist
							{
								OFFSET 0.265709 0.012698 -0.007375
								CHANNELS 3 Zrotation Yrotation Xrotation
								End Site
								{
									OFFSET 0.000000 0.000000 0.000000
								}
							}
						}
					}
				}
				JOINT rclavicle
				{
					OFFSET -0.082954 0.112472 -0.023707
					CHANNELS 3 Zrotation Yrotation Xrotation
					JOINT rshoulder
					{
						OFFSET -0.113228 0.046853 -0.008472
						CHANNELS 3 Zrotation Yrotation Xrotation
						JOINT relbow
						{
							OFFSET -0.260127 -0.014369 -0.031269
							CHANNELS 3 Zrotation Yrotation Xrotation
							JOINT rwrist
							{
								OFFSET -0.269108 0.006794 -0.006027
								CHANNELS 3 Zrotation Yrotation Xrotation
								End Site
								{
									OFFSET 0.000000 0.000000 0.000000
								}
							}
						}
					}
				}
			}
		}
	}
}
MOTION
Frames: 13
Frame Time: 0.033333
0.005659 0.321774 0.999614 90.457553 -2.272421 83.576989 1.795178 -2.694428 -14.279743 -4.826270 -1.620468 18.931020 3.377799 11.961694 -16.407564 0.000000 -0.000000 0.000000 3.160234 -2.302495 3.999440 1.971917 6.871795 13.050053 0.320429 -4.975205 -16.431157 0.000000 -0.000000 0.000000 0.399255 4.366928 10.694708 1.055179 -1.116506 -1.294498 -0.339506 -0.002959 2.674202 2.705780 -0.762939 -1.666172 -1.219734 -7.320110 11.613316 -26.317782 6.571134 1.663836 -55.641798 -3.095933 10.501537 4.004637 -36.469188 16.683572 -1.388426 -0.536720 -0.538400 24.994608 -0.227825 -0.056873 56.801750 2.325365 15.235620 -12.282201 30.519487 3.948936 -3.524130 0.251637 -2.154186 
0.014371 0.321920 0.999566 90.220388 -2.310214 83.315663 1.827387 -3.093481 -16.057017 -4.773027 -1.063572 17.636278 3.208816 11.798193 -16.140108 0.000000 -0.000000 0.000000 3.032031 -2.661285 4.955040 1.920920 7.254585 12.848057 0.425269 -4.770006 -16.588438 0.000000 -0.000000 0.000000 0.482544 5.143425 11.170453 0.966982 -0.926791 -1.337212 -0.302594 0.258989 2.703482 2.790995 -0.781328 -1.895030 -1.267257 -7.712229 11.636035 -26.230969 6.880840 1.600138 -55.761032 -2.641117 10.593788 3.971991 -36.708742 16.818871 -1.350928 -0.622916 -0.587787 25.052191 -0.021236 -0.041643 56.736780 2.929277 15.144079 -12.707387 30.626367 3.381662 -3.769025 0.335701 -2.100622 
0.022986 0.322222 0.999562 89.947268 -2.310236 83.134088 1.924690 -3.479750 -17.965627 -4.688947 -0.122048 17.321161 3.206839 11.814711 -15.854406 0.000000 -0.000000 0.000000 2.905013 -3.050613 5.821357 1.892834 7.627205 12.638674 0.510046 -4.522772 -16.668274 0.000000 -0.000000 0.000000 0.547946 5.942135 11.508504 0.921199 -0.743053 -1.379134 -0.252020 0.536832 2.773905 2.854441 -0.888511 -2.033788 -1.272266 -8.049780 11.754770 -26.135478 7.163226 1.506604 -55.946891 -2.235817 10.688148 4.008335 -36.750395 16.917084 -1.342786 -0.708082 -0.710873 25.093688 0.204557 -0.037076 56.641696 3.519294 15.088781 -13.016731 30.534643 2.967578 -3.932940 0.432616 -2.026966 
0.031538 0.322683 0.999475 89.589842 -2.292883 82.951783 2.044625 -3.739760 -19.745057 -4.740169 0.808381 17.671147 3.225714 11.885838 -15.515142 0.000000 -0.000000 0.000000 2.817545 -3.417352 6.612877 1.820132 8.039855 12.519691 0.528638 -4.266242 -16.833276 0.000000 -0.000000 0.000000 0.611084 6.746315 11.841099 0.880992 -0.517071 -1.416337 -0.200985 0.826561 2.779186 2.925294 -1.038014 -2.096340 -1.267385 -8.402907 11.917322 -25.980041 7.398292 1.466206 -56.200317 -1.853841 10.723211 4.050669 -36.646321 16.934831 -1.417178 -0.676695 -0.842346 25.158237 0.460773 0.056365 56.541327 4.142391 14.997889 -13.271509 30.374666 2.552632 -4.020975 0.470523 -1.954148 
0.040133 0.323220 0.999077 89.256437 -2.286300 82.798409 2.148609 -4.108586 -21.291426 -4.818266 1.701432 18.210782 3.286115 11.964167 -15.273092 0.000000 -0.000000 0.000000 2.793428 -3.589846 7.359366 1.679220 8.475020 12.455276 0.447049 -4.173669 -17.145090 0.000000 -0.000000 0.000000 0.614336 7.456386 12.193882 0.842776 -0.285561 -1.520389 -0.161931 1.117437 2.799732 3.025515 -1.112967 -2.200266 -1.283764 -8.671500 12.016591 -25.780547 7.645360 1.519665 -56.345475 -1.455336 10.740929 3.911592 -36.699980 17.177925 -1.570083 -0.695330 -0.954944 25.173067 0.744936 0.138757 56.560097 4.670565 14.949265 -13.527470 30.255946 2.250106 -4.111937 0.455295 -1.910617 
0.048840 0.323977 0.998246 88.978244 -2.268545 82.683517 2.190866 -4.556711 -22.488092 -4.725104 2.408523 18.434576 3.295244 12.063529 -14.994007 0.000000 -0.000000 0.000000 2.864226 -3.649030 8.036232 1.463693 8.935119 12.492585 0.299456 -4.261421 -17.620945 0.000000 -0.000000 0.000000 0.586374 8.066893 12.474835 0.803737 -0.090123 -1.601585 -0.132777 1.382737 2.847966 3.144545 -1.200678 -2.325389 -1.306141 -8.961071 12.098291 -25.567137 7.907535 1.559791 -56.458995 -1.016758 10.800472 3.796153 -36.801859 17.432072 -1.720941 -0.673138 -1.073620 25.220297 1.065415 0.181154 56.587365 5.152182 14.989028 -13.752860 30.080920 2.014345 -4.235888 0.454571 -1.850508 
0.057786 0.324952 0.996901 88.770036 -2.255543 82.662756 2.114810 -5.102992 -23.242662 -4.484920 2.450650 17.852359 3.219976 12.141158 -14.675548 0.000000 -0.000000 0.000000 3.002209 -3.565417 8.628755 1.220332 9.350621 12.580735 0.103827 -4.560724 -18.267464 0.000000 -0.000000 0.000000 0.492843 8.549438 12.569272 0.769479 0.108290 -1.622045 -0.096000 1.621403 2.877701 3.307647 -1.195233 -2.408953 -1.381697 -9.305241 12.194591 -25.432671 8.162732 1.591155 -56.450781 -0.581841 10.924286 3.702692 -36.817011 17.601275 -1.736996 -0.664697 -1.167929 25.330887 1.361093 0.231531 56.579042 5.622433 15.091480 -13.942566 29.896281 1.796284 -4.321902 0.470345 -1.807624 
0.066910 0.326011 0.995060 88.514429 -2.181299 82.773744 2.041417 -5.625237 -23.537804 -4.129503 1.830557 16.285836 3.040022 12.083073 -14.432741 0.000000 -0.000000 0.000000 3.189386 -3.493741 9.040259 1.028267 9.825933 12.786859 -0.089710 -4.867604 -18.985362 0.000000 -0.000000 0.000000 0.484997 8.948574 12.484858 0.682296 0.339894 -1.558562 -0.124720 1.831613 2.932220 3.515515 -1.115653 -2.580569 -1.433928 -9.733106 12.211486 -25.297786 8.431594 1.553431 -56.397327 -0.202697 11.078368 3.603286 -36.777075 17.731189 -1.702053 -0.599655 -1.225906 25.492295 1.648672 0.216859 56.626966 6.064702 15.258801 -14.107554 29.741552 1.670210 -4.399860 0.526862 -1.718891 
0.076521 0.327070 0.992840 88.228945 -2.010561 82.952663 1.946940 -5.974466 -23.334629 -3.558642 0.770971 13.829958 2.845565 12.004938 -14.334567 0.000000 -0.000000 0.000000 3.455832 -3.356778 9.400165 0.869284 10.200172 13.050820 -0.227522 -5.074153 -19.748479 0.000000 -0.000000 0.000000 0.546839 9.191785 12.284080 0.572144 0.629419 -1.462132 -0.165061 2.040653 2.925301 3.723480 -1.012026 -2.686906 -1.527682 -10.181073 12.232707 -25.155097 8.692773 1.543861 -56.386945 0.204597 11.206756 3.654474 -36.683623 17.653367 -1.736919 -0.617905 -1.184329 25.590079 1.930084 0.236908 56.797836 6.429524 15.364713 -14.257011 29.673054 1.519030 -4.358061 0.691613 -1.693194 
0.086550 0.328172 0.990338 88.012219 -1.751745 83.221310 1.877070 -6.124963 -22.873848 -2.863686 -0.164704 10.924091 2.643558 12.010157 -14.298573 0.000000 -0.000000 0.000000 3.764831 -3.252431 9.719827 0.773105 10.516756 13.274121 -0.335118 -5.232055 -20.497876 0.000000 -0.000000 0.000000 0.612235 9.304569 11.969509 0.493128 0.873239 -1.330944 -0.173198 2.241243 2.840210 3.891506 -0.900622 -2.755347 -1.603116 -10.561646 12.151322 -25.068552 8.920412 1.474575 -56.428368 0.563751 11.265638 3.759308 -36.343906 17.501188 -1.744740 -0.538762 -1.099451 25.648755 2.186036 0.354975 57.009631 6.773146 15.467824 -14.361585 29.733978 1.394635 -4.271811 0.805255 -1.701810 
0.096854 0.329289 0.987721 87.874974 -1.467308 83.612172 1.784892 -5.977666 -22.363470 -2.202896 -0.722430 7.978986 2.441481 12.063862 -14.254888 0.000000 -0.000000 0.000000 4.066371 -3.169995 9.940444 0.711835 10.741314 13.466324 -0.395856 -5.330673 -21.221202 0.000000 -0.000000 0.000000 0.616433 9.352306 11.663760 0.424947 1.097984 -1.327787 -0.153957 2.393293 2.681577 4.072773 -0.811490 -2.877886 -1.659454 -10.948797 12.134447 -24.983048 9.107866 1.467727 -56.503462 0.892937 11.266409 3.935738 -35.935052 17.271213 -1.718215 -0.504443 -0.881014 25.732497 2.364170 0.388715 57.250271 6.960118 15.584374 -14.412860 29.895225 1.359520 -4.229158 0.920741 -1.687844 
0.107625 0.330525 0.985183 87.780085 -1.200744 84.049013 1.672442 -5.640014 -21.871593 -1.665380 -0.964765 5.423164 2.375913 12.107745 -14.224974 0.000000 -0.000000 0.000000 4.294091 -3.161598 10.130444 0.667662 10.933381 13.647340 -0.432217 -5.340937 -21.840168 0.000000 -0.000000 0.000000 0.536969 9.368343 11.315148 0.390859 1.268449 -1.309390 -0.111173 2.560154 2.537547 4.223387 -0.742722 -3.026069 -1.648495 -11.251294 12.034943 -24.940154 9.192006 1.431023 -56.584213 1.130204 11.217428 4.095407 -35.450792 16.986751 -1.649525 -0.372665 -0.604004 25.843564 2.511779 0.438997 57.466125 7.118226 15.652157 -14.456380 30.138550 1.352321 -4.197680 0.988973 -1.637356 
0.119036 0.331943 0.982933 87.728329 -0.970195 84.525477 1.568978 -5.362733 -21.460586 -1.235201 -1.054608 3.463366 2.437749 12.226119 -14.447122 0.000000 -0.000000 0.000000 4.439588 -3.164303 10.340596 0.639851 11.099682 13.791218 -0.399779 -5.306699 -22.350304 0.000000 -0.000000 0.000000 0.426323 9.405552 10.991812 0.350956 1.396249 -1.309731 -0.054302 2.631234 2.375674 4.314738 -0.708905 -3.235898 -1.608914 -11.478756 11.836930 -24.915661 9.155662 1.446150 -56.685307 1.325303 11.115901 4.289994 -34.895924 16.634243 -1.634903 -0.263171 -0.456017 25.897177 2.635035 0.510764 57.765781 7.202883 15.702489 -14.545180 30.443046 1.353826 -4.141345 1.029941 -1.653642 
